<svg width="16" height="16" viewBox="0 0 16 16" fill="none" xmlns="http://www.w3.org/2000/svg">
<path d="M8 16C5.86312 16 3.85416 15.1679 2.34313 13.6569C0.832094 12.1459 0 10.1369 0 8C0 5.86312 0.832125 3.85416 2.34313 2.34313C3.85413 0.832094 5.86312 0 8 0C10.1369 0 12.1458 0.832125 13.6569 2.34313C15.1679 3.85413 16 5.86312 16 8C16 10.1369 15.1679 12.1458 13.6569 13.6569C12.1459 15.1679 10.1369 16 8 16ZM8 1C4.14019 1 1 4.14019 1 8C1 11.8598 4.14019 15 8 15C11.8598 15 15 11.8598 15 8C15 4.14019 11.8598 1 8 1Z" fill="#9ACD32"/>
<path d="M8 11.5C7.72388 11.5 7.5 11.2761 7.5 11C7.5 9.73794 7.99147 8.55144 8.88391 7.659C9.44241 7.10047 9.75 6.35791 9.75 5.56803C9.75 4.70341 9.04659 4 8.18197 4H8.06803C7.20341 4 6.5 4.70341 6.5 5.56803V5.75C6.5 6.02612 6.27613 6.25 6 6.25C5.72387 6.25 5.5 6.02612 5.5 5.75V5.56803C5.5 4.152 6.652 3 8.06803 3H8.18197C9.598 3 10.75 4.152 10.75 5.56803C10.75 6.625 10.3384 7.61872 9.591 8.36613C8.88744 9.06966 8.5 10.0051 8.5 11C8.5 11.2761 8.27612 11.5 8 11.5Z" fill="#9ACD32"/>
<path d="M8.00113 13.5C7.725 13.5 7.50098 13.2761 7.50098 13C7.50098 12.7239 7.72466 12.5 8.00081 12.5H8.00113C8.27725 12.5 8.50112 12.7239 8.50112 13C8.50112 13.2761 8.27725 13.5 8.00113 13.5Z" fill="#9ACD32"/>
</svg>
