<svg width="16" height="16" viewBox="0 0 16 16" fill="none" xmlns="http://www.w3.org/2000/svg">
<g clip-path="url(#clip0)">
<path d="M15.3787 6.08134V6.08838C15.3787 6.08838 15.3787 6.06728 15.3576 6.06025L14.5454 5.40981V2.9663C14.5454 2.62455 14.2684 2.3475 13.9266 2.3475H10.7272L8.1571 0.287213C8.06059 0.209601 7.92312 0.209601 7.82661 0.287213L5.25652 2.3475H2.05709C1.71535 2.3475 1.4383 2.62455 1.4383 2.9663V5.4063L0.626135 6.05673C0.617082 6.06662 0.608863 6.07717 0.601524 6.08838C0.203617 6.57616 -0.0093121 7.18875 0.000312555 7.81818V13.3099C0.000312555 14.4983 0.64723 15.771 2.46141 15.771H13.5364C14.7247 15.771 15.9975 15.1241 15.9975 13.3099V7.81818C16.0267 7.18053 15.8045 6.55686 15.3787 6.08134ZM14.5489 6.07783L14.7528 6.24307L14.5489 6.38722V6.07783ZM7.99537 0.835687L9.88338 2.35102H6.10735L7.99537 0.835687ZM1.97271 2.9663C1.97271 2.91773 2.01204 2.8784 2.0606 2.8784H13.9301C13.9787 2.8784 14.018 2.91773 14.018 2.9663V6.76342L7.99537 10.9614L1.97271 6.76342V2.9663ZM1.44181 6.08486V6.39425L1.23789 6.24307L1.44181 6.08486ZM0.524175 13.3029V7.81466C0.521011 7.39588 0.634177 6.98448 0.85115 6.6263L6.12493 10.3074L0.759737 14.3295C0.603941 14.0098 0.52334 13.6586 0.524175 13.3029ZM13.5364 15.2401L2.45438 15.2366C1.94849 15.2677 1.45113 15.0956 1.07265 14.7585L6.58903 10.6273L7.84419 11.5169H7.86528H7.88989C7.92299 11.5323 7.95889 11.5406 7.99537 11.5415C8.03185 11.5406 8.06775 11.5323 8.10084 11.5169H8.12545H8.14655L9.3771 10.659L14.8935 14.7796C14.5087 15.0868 14.0286 15.2497 13.5364 15.2401ZM15.463 7.81818V13.3064C15.4742 13.6726 15.3919 14.0356 15.224 14.3612L9.83416 10.325L15.1396 6.6263C15.367 6.98105 15.4799 7.39711 15.463 7.81818Z" fill="#9ACD32"/>
<path d="M9.48263 4.05615H3.68146C3.53485 4.05615 3.41602 4.17499 3.41602 4.3216C3.41602 4.46821 3.53485 4.58705 3.68146 4.58705H9.48263C9.62924 4.58705 9.74807 4.46821 9.74807 4.3216C9.74807 4.17499 9.62924 4.05615 9.48263 4.05615Z" fill="#9ACD32"/>
<path d="M12.3094 5.99707H3.68146C3.53485 5.99707 3.41602 6.11591 3.41602 6.26252C3.41602 6.40913 3.53485 6.52796 3.68146 6.52796H12.3094C12.456 6.52796 12.5748 6.40913 12.5748 6.26252C12.5748 6.11591 12.456 5.99707 12.3094 5.99707Z" fill="#9ACD32"/>
</g>
<defs>
<clipPath id="clip0">
<rect width="16" height="16" fill="white"/>
</clipPath>
</defs>
</svg>
