<svg width="12" height="12" viewBox="0 0 12 12" fill="none" xmlns="http://www.w3.org/2000/svg">
<path d="M7.5 0.5H4.5V1.5H7.5V0.5ZM5.5 7H6.5V4H5.5V7ZM9.5125 3.6925L10.225 2.98C10.01 2.7225 9.775 2.4875 9.5175 2.2725L8.805 2.985C8.0375 2.37 7.06 2 5.9975 2C3.51 2 1.5 4.015 1.5 6.5C1.5 8.985 3.51 11 5.9975 11C8.485 11 10.5 8.985 10.5 6.5C10.5 5.4375 10.13 4.4625 9.5125 3.6925ZM6 10C4.0675 10 2.5 8.4325 2.5 6.5C2.5 4.5675 4.0675 3 6 3C7.9325 3 9.5 4.5675 9.5 6.5C9.5 8.4325 7.9325 10 6 10Z" fill="#27AE60"/>
</svg>
