<svg width="16" height="16" viewBox="0 0 16 16" fill="none" xmlns="http://www.w3.org/2000/svg">
<g clip-path="url(#clip0)">
<path d="M14.6667 6H1.33334C1.14934 6 1 6.14934 1 6.33334V15.6667C1 15.8507 1.14934 16 1.33334 16H14.6667C14.8507 16 15 15.8507 15 15.6667V6.33334C15 6.14934 14.8507 6 14.6667 6ZM14.3333 15.3333H1.66666V6.66666H14.3333V15.3333H14.3333Z" fill="#9ACD32"/>
<path d="M15.333 3.3335H0.666352C0.482352 3.3335 0.333008 3.48284 0.333008 3.66684V6.3335C0.333008 6.5175 0.482352 6.66685 0.666352 6.66685H15.333C15.517 6.66685 15.6664 6.5175 15.6664 6.3335V3.66684C15.6664 3.48281 15.517 3.3335 15.333 3.3335ZM14.9997 6.00016H0.999695V4.00015H14.9997V6.00016Z" fill="#9ACD32"/>
<path d="M8.00034 3.3335C7.81634 3.3335 7.66699 3.48284 7.66699 3.66684V15.6668C7.66699 15.8508 7.81634 16.0002 8.00034 16.0002C8.18435 16.0002 8.33369 15.8508 8.33369 15.6668V3.66684C8.33369 3.48281 8.18435 3.3335 8.00034 3.3335Z" fill="#9ACD32"/>
<path d="M8.34067 3.588C7.99801 1.98066 5.95401 0.256 4.592 0.0253437C4.508 0.00865625 4.422 0 4.33335 0C3.598 0 3 0.598 3 1.33334C3 1.64069 3.10734 1.94069 3.302 2.17869C3.30466 2.18069 3.30666 2.18403 3.30866 2.18669C4.29866 3.45134 7.59401 3.93603 7.96867 3.98734C7.98401 3.98934 7.99932 3.99069 8.01401 3.99069C8.10667 3.99069 8.19467 3.95269 8.25867 3.88403C8.33267 3.80466 8.36336 3.694 8.34067 3.588ZM3.82466 1.76334C3.81866 1.75469 3.812 1.74734 3.80531 1.74C3.71466 1.62334 3.66666 1.48266 3.66666 1.33334C3.66666 0.965344 3.966 0.666687 4.33332 0.666687C4.37732 0.666687 4.42066 0.671344 4.47197 0.680687C5.47132 0.850031 6.97998 2.05934 7.52198 3.23934C6.36135 3.02534 4.402 2.526 3.82466 1.76334Z" fill="#9ACD32"/>
<path d="M11.6663 0C11.5777 0 11.4917 0.00865625 11.417 0.0233438C10.0463 0.256 8.00232 1.98066 7.65966 3.588C7.63701 3.694 7.66766 3.80466 7.74166 3.884C7.80501 3.952 7.89366 3.99066 7.98566 3.99066C8.00032 3.99066 8.01566 3.98931 8.03032 3.988C8.40497 3.93666 11.7003 3.452 12.6903 2.18734C12.693 2.18469 12.695 2.18134 12.6977 2.17869C12.8923 1.94066 12.9997 1.64066 12.9997 1.33334C12.9997 0.598 12.4017 0 11.6663 0ZM12.1943 1.74066C12.1877 1.748 12.181 1.75531 12.175 1.764C11.5983 2.52534 9.63897 3.026 8.47763 3.24C9.02029 2.05866 10.5296 0.85 11.537 0.679344C11.579 0.671344 11.6223 0.666688 11.6663 0.666688C12.0337 0.666688 12.333 0.965344 12.333 1.33334C12.333 1.48266 12.285 1.62266 12.1943 1.74066Z" fill="#9ACD32"/>
</g>
<defs>
<clipPath id="clip0">
<rect width="16" height="16" fill="white"/>
</clipPath>
</defs>
</svg>
