<svg width="20" height="20" viewBox="0 0 20 20" fill="none" xmlns="http://www.w3.org/2000/svg">
<g clip-path="url(#clip0)">
<path d="M18.0292 3.54152C17.9214 2.15028 16.7557 1.05101 15.3374 1.05101H2.70086C1.2116 1.05101 0 2.26261 0 3.75187V16.2481C0 17.7374 1.2116 18.949 2.70086 18.949H17.2992C18.7884 18.949 20 17.7374 20 16.2481V6.14128C20 4.90504 19.1648 3.86089 18.0292 3.54152ZM2.70086 2.31272H15.3374C16.024 2.31272 16.5994 2.79616 16.7422 3.44046H2.70086C2.17208 3.44046 1.67871 3.5938 1.26172 3.8575V3.75187C1.26172 2.95833 1.90732 2.31272 2.70086 2.31272ZM17.2991 17.6873H2.70086C1.90732 17.6873 1.26172 17.0417 1.26172 16.2481V6.14128C1.26172 5.34774 1.90732 4.70214 2.70086 4.70214H17.2992C18.0927 4.70214 18.7383 5.34774 18.7383 6.14128V8.34289H14.7156C13.1215 8.34289 11.8246 9.63982 11.8246 11.2339C11.8246 12.828 13.1215 14.1249 14.7156 14.1249H18.7383V16.2481C18.7383 17.0417 18.0927 17.6873 17.2991 17.6873ZM18.7383 12.8632H14.7156C13.8172 12.8632 13.0863 12.1323 13.0863 11.2339C13.0863 10.3355 13.8172 9.60461 14.7156 9.60461H18.7383V12.8632Z" fill="#2A2B2A" fill-opacity="0.4"/>
<path d="M14.9498 11.9386C15.3125 11.9386 15.6066 11.6445 15.6066 11.2818C15.6066 10.919 15.3125 10.625 14.9498 10.625C14.587 10.625 14.293 10.919 14.293 11.2818C14.293 11.6445 14.587 11.9386 14.9498 11.9386Z" fill="#2A2B2A" fill-opacity="0.4"/>
</g>
<defs>
<clipPath id="clip0">
<rect width="20" height="20" fill="white"/>
</clipPath>
</defs>
</svg>
