<svg width="20" height="20" viewBox="0 0 20 20" fill="none" xmlns="http://www.w3.org/2000/svg">
<path d="M10.015 4.31104C7.18426 4.31104 4.87158 6.62371 4.87158 9.45443C4.87158 10.9345 5.51913 12.3591 6.61071 13.3212C7.42477 14.1353 7.35077 15.8744 7.33227 15.8929C7.33227 15.9854 7.35077 16.0594 7.42477 16.1334C7.48028 16.1889 7.57278 16.2259 7.64679 16.2259H12.3646C12.4572 16.2259 12.5312 16.1889 12.5867 16.1334C12.6422 16.0779 12.6792 15.9854 12.6792 15.8929C12.6792 15.8744 12.5867 14.1353 13.4007 13.3212C13.4192 13.3027 13.4377 13.2842 13.4562 13.2657C14.5293 12.2851 15.1584 10.8975 15.1584 9.45443C15.1584 6.62371 12.8457 4.31104 10.015 4.31104ZM12.9752 12.8402C12.9567 12.8587 12.9197 12.8957 12.9197 12.9142C12.1981 13.6913 12.0686 14.9678 12.0501 15.5784H7.96131C7.94281 14.9678 7.8133 13.6357 7.03624 12.8402C6.05567 11.9891 5.48213 10.7495 5.48213 9.43593C5.48213 6.93824 7.49878 4.92158 9.99647 4.92158C12.4942 4.92158 14.5108 6.93824 14.5108 9.43593C14.5108 10.7495 13.9558 11.9891 12.9752 12.8402Z" fill="#9ACD32"/>
<path d="M9.99665 5.62451C9.83014 5.62451 9.68213 5.77252 9.68213 5.93904C9.68213 6.10555 9.83014 6.25356 9.99665 6.25356C11.8653 6.25356 13.3639 7.77068 13.3639 9.62083C13.3639 9.78734 13.5119 9.93535 13.6784 9.93535C13.8449 9.93535 13.993 9.78734 13.993 9.62083C14.0115 7.41915 12.2168 5.62451 9.99665 5.62451Z" fill="#9ACD32"/>
<path d="M12.0504 16.5771H7.94308C7.51754 16.5771 7.16602 16.9287 7.16602 17.3542C7.16602 17.7797 7.51754 18.1313 7.94308 18.1313H12.0319C12.4759 18.1128 12.8275 17.7797 12.8275 17.3542C12.8275 16.9287 12.4759 16.5771 12.0504 16.5771ZM12.0504 17.4837H7.94308C7.86907 17.4837 7.79506 17.4282 7.79506 17.3357C7.79506 17.2432 7.85057 17.1877 7.94308 17.1877H12.0319C12.1059 17.1877 12.1799 17.2432 12.1799 17.3357C12.1799 17.4282 12.1244 17.4837 12.0504 17.4837Z" fill="#9ACD32"/>
<path d="M11.4396 18.4458H8.55343C8.12789 18.4458 7.77637 18.7973 7.77637 19.2229C7.77637 19.6484 8.12789 19.9999 8.55343 19.9999H11.4396C11.8652 19.9999 12.2167 19.6484 12.2167 19.2229C12.2167 18.7788 11.8652 18.4458 11.4396 18.4458ZM11.4396 19.3524H8.55343C8.47942 19.3524 8.40541 19.2969 8.40541 19.2044C8.40541 19.1119 8.46092 19.0563 8.55343 19.0563H11.4396C11.5136 19.0563 11.5877 19.1119 11.5877 19.2044C11.5877 19.2969 11.5136 19.3524 11.4396 19.3524Z" fill="#9ACD32"/>
<path d="M9.99665 2.77521C10.1817 2.77521 10.3112 2.6272 10.3112 2.46069V0.314524C10.3112 0.148011 10.1632 0 9.99665 0C9.83014 0 9.68213 0.148011 9.68213 0.314524V2.46069C9.68213 2.6272 9.83014 2.77521 9.99665 2.77521Z" fill="#9ACD32"/>
<path d="M15.2327 1.59126C15.0847 1.48025 14.8997 1.53575 14.8072 1.66526L13.6231 3.4414C13.5121 3.58941 13.5491 3.79292 13.6971 3.88543C13.7526 3.92243 13.8082 3.94093 13.8637 3.94093C13.9747 3.94093 14.0672 3.88543 14.1227 3.79292L15.3068 2.01679C15.4178 1.88728 15.3808 1.68376 15.2327 1.59126Z" fill="#9ACD32"/>
<path d="M6.24115 3.8668C6.29666 3.8668 6.35216 3.8483 6.40767 3.81129C6.55568 3.71879 6.59268 3.51527 6.50017 3.36726L5.35309 1.57263C5.26058 1.42462 5.05707 1.38761 4.90905 1.48012C4.76104 1.57263 4.72404 1.77614 4.81655 1.92415L5.96363 3.71879C6.03764 3.8298 6.13015 3.8668 6.24115 3.8668Z" fill="#9ACD32"/>
<path d="M4.00231 5.82805L2.13367 4.81047C1.98566 4.73646 1.78214 4.79197 1.70814 4.93998C1.61563 5.08799 1.67114 5.29151 1.83765 5.36551L3.70629 6.38309C3.76179 6.4016 3.7988 6.4201 3.8543 6.4201C3.96531 6.4201 4.07632 6.36459 4.13182 6.25358C4.20583 6.10557 4.15032 5.90206 4.00231 5.82805Z" fill="#9ACD32"/>
<path d="M18.3039 4.93998C18.2299 4.79197 18.0264 4.73646 17.8784 4.81047L15.9912 5.82805C15.8432 5.90206 15.7877 6.10557 15.8617 6.25358C15.9172 6.36459 16.0283 6.4201 16.1393 6.4201C16.1948 6.4201 16.2503 6.4016 16.2873 6.38309L18.1744 5.36551C18.3224 5.29151 18.3779 5.08799 18.3039 4.93998Z" fill="#9ACD32"/>
</svg>
