<svg width="20" height="20" viewBox="0 0 20 20" fill="none" xmlns="http://www.w3.org/2000/svg">
<path d="M10.2734 7.86453V3.35687C10.2734 3.28435 10.2446 3.21481 10.1933 3.16353C10.1421 3.11225 10.0725 3.08344 9.99999 3.08344H6.02859L5.41203 2.31359C5.38642 2.28158 5.35394 2.25573 5.317 2.23796C5.28005 2.22019 5.23958 2.21095 5.19859 2.21094H2.53125C2.45873 2.21094 2.38918 2.23975 2.3379 2.29103C2.28662 2.34231 2.25781 2.41185 2.25781 2.48438V7.86453C2.25779 7.90044 2.26485 7.93601 2.27858 7.9692C2.29232 8.00238 2.31246 8.03253 2.33785 8.05793C2.36325 8.08332 2.3934 8.10346 2.42659 8.1172C2.45977 8.13093 2.49534 8.13799 2.53125 8.13797H9.99999C10.0359 8.13799 10.0715 8.13093 10.1046 8.1172C10.1378 8.10346 10.168 8.08332 10.1934 8.05793C10.2188 8.03253 10.2389 8.00238 10.2526 7.9692C10.2664 7.93601 10.2734 7.90044 10.2734 7.86453ZM9.72655 7.59109H2.80469V2.75781H5.06718L5.68374 3.52781C5.70936 3.55981 5.74184 3.58564 5.77878 3.60338C5.81573 3.62112 5.8562 3.63033 5.89718 3.63031H9.72655V7.59109Z" fill="#9ACD32"/>
<path d="M17.4687 12.7343H13.4967L12.8802 11.9643C12.8545 11.9323 12.822 11.9065 12.785 11.8887C12.7481 11.871 12.7076 11.8618 12.6666 11.8618H10C9.96409 11.8618 9.92852 11.8689 9.89534 11.8826C9.86215 11.8963 9.832 11.9165 9.8066 11.9419C9.78121 11.9673 9.76107 11.9974 9.74733 12.0306C9.7336 12.0638 9.72654 12.0993 9.72656 12.1353V17.5156C9.72656 17.5881 9.75537 17.6576 9.80665 17.7089C9.85793 17.7602 9.92748 17.789 10 17.789H17.4687C17.5047 17.789 17.5402 17.7819 17.5734 17.7682C17.6066 17.7544 17.6367 17.7343 17.6621 17.7089C17.6875 17.6835 17.7076 17.6534 17.7214 17.6202C17.7351 17.587 17.7422 17.5515 17.7422 17.5156V13.0079C17.7422 12.972 17.7352 12.9364 17.7215 12.9032C17.7077 12.87 17.6876 12.8398 17.6622 12.8144C17.6368 12.789 17.6066 12.7688 17.5735 12.7551C17.5403 12.7414 17.5047 12.7343 17.4687 12.7343ZM17.1953 17.242H10.2734V12.4088H12.5353L13.1519 13.1788C13.1775 13.2108 13.21 13.2366 13.2469 13.2543C13.2839 13.272 13.3243 13.2812 13.3653 13.2812H17.1947L17.1953 17.242Z" fill="#9ACD32"/>
<path d="M12.0332 5.78125H14.4435C14.6951 5.7815 14.9363 5.88152 15.1142 6.05939C15.2921 6.23725 15.3922 6.47842 15.3926 6.73V8.75688L14.961 8.21984C14.9156 8.1633 14.8495 8.12712 14.7774 8.11927C14.7053 8.11141 14.633 8.13253 14.5765 8.17797C14.5199 8.22341 14.4838 8.28945 14.4759 8.36156C14.468 8.43368 14.4892 8.50596 14.5346 8.5625L15.4532 9.70484C15.4788 9.73678 15.5112 9.76255 15.5482 9.78026C15.5851 9.79797 15.6255 9.80717 15.6664 9.80717C15.7073 9.80717 15.7477 9.79797 15.7846 9.78026C15.8215 9.76255 15.854 9.73678 15.8796 9.70484L16.7969 8.5625C16.8424 8.50596 16.8635 8.43368 16.8556 8.36158C16.8477 8.28949 16.8115 8.22347 16.755 8.17805C16.6984 8.13263 16.6262 8.11153 16.5541 8.1194C16.482 8.12727 16.416 8.16346 16.3705 8.22L15.9393 8.75703V6.73C15.9388 6.33346 15.781 5.95331 15.5006 5.67293C15.2202 5.39255 14.84 5.23483 14.4435 5.23438H12.0332C11.9607 5.23438 11.8911 5.26318 11.8399 5.31446C11.7886 5.36574 11.7598 5.43529 11.7598 5.50781C11.7598 5.58033 11.7886 5.64988 11.8399 5.70116C11.8911 5.75244 11.9607 5.78125 12.0332 5.78125Z" fill="#9ACD32"/>
<path d="M7.96708 14.2188H5.55676C5.30519 14.2186 5.06398 14.1186 4.88606 13.9407C4.70814 13.7628 4.60803 13.5217 4.6077 13.2701V11.2432L5.03926 11.7802C5.0847 11.8368 5.15074 11.873 5.22286 11.8808C5.29497 11.8887 5.36725 11.8676 5.4238 11.8221C5.48034 11.7767 5.51652 11.7106 5.52437 11.6385C5.53223 11.5664 5.51111 11.4941 5.46567 11.4376L4.54708 10.2952C4.52053 10.2648 4.48777 10.2404 4.45099 10.2236C4.41421 10.2069 4.37428 10.1982 4.33387 10.1982C4.29347 10.1982 4.25354 10.2069 4.21676 10.2236C4.17998 10.2404 4.14722 10.2648 4.12067 10.2952L3.20333 11.4376C3.15791 11.4941 3.13681 11.5664 3.14468 11.6385C3.15255 11.7106 3.18874 11.7766 3.24528 11.822C3.30183 11.8675 3.3741 11.8885 3.4462 11.8807C3.51829 11.8728 3.58432 11.8366 3.62973 11.7801L4.06098 11.2431V13.2701C4.06148 13.6666 4.21923 14.0468 4.49965 14.3272C4.78006 14.6075 5.16023 14.7653 5.55676 14.7657H7.96708C8.0396 14.7657 8.10915 14.7369 8.16043 14.6856C8.21171 14.6343 8.24051 14.5648 8.24051 14.4923C8.24051 14.4198 8.21171 14.3502 8.16043 14.2989C8.10915 14.2476 8.0396 14.2188 7.96708 14.2188Z" fill="#9ACD32"/>
</svg>
