<svg width="20" height="20" viewBox="0 0 20 20" fill="none" xmlns="http://www.w3.org/2000/svg">
<g clip-path="url(#clip0)">
<path d="M17.0833 5.37256H2.91668C1.30832 5.37256 0 6.68088 0 8.2892V16.6225C0 18.2308 1.30832 19.5392 2.91668 19.5392H17.0834C18.6917 19.5392 20 18.2309 20 16.6225V8.2892C20 6.68088 18.6917 5.37256 17.0833 5.37256ZM19.1667 16.6225C19.1667 17.7709 18.2325 18.7059 17.0834 18.7059H2.91668C1.7675 18.7059 0.833359 17.7709 0.833359 16.6225V8.2892C0.833359 7.14088 1.76754 6.20588 2.91668 6.20588H17.0834C18.2325 6.20588 19.1667 7.14088 19.1667 8.2892V16.6225Z" fill="#9ACD32"/>
<path d="M16.25 11.2056C15.5608 11.2056 15 11.7664 15 12.4556C15 13.1447 15.5608 13.7056 16.25 13.7056C16.9392 13.7056 17.5 13.1447 17.5 12.4556C17.5 11.7664 16.9392 11.2056 16.25 11.2056ZM16.25 12.8722C16.0208 12.8722 15.8333 12.6856 15.8333 12.4556C15.8333 12.2256 16.0208 12.0389 16.25 12.0389C16.4792 12.0389 16.6667 12.2256 16.6667 12.4556C16.6667 12.6856 16.4792 12.8722 16.25 12.8722Z" fill="#9ACD32"/>
<path d="M19.5835 9.53906H16.2502C14.6419 9.53906 13.3335 10.8474 13.3335 12.4557C13.3335 14.0641 14.6418 15.3724 16.2502 15.3724H19.5835C19.8135 15.3724 20.0002 15.1857 20.0002 14.9557V9.95574C20.0002 9.72574 19.8135 9.53906 19.5835 9.53906ZM19.1669 14.5391H16.2502C15.101 14.5391 14.1669 13.6041 14.1669 12.4557C14.1669 11.3074 15.101 10.3724 16.2502 10.3724H19.1669V14.5391Z" fill="#9ACD32"/>
<path d="M17.0391 5.60238L15.2749 2.07402C14.9191 1.36234 14.3049 0.838198 13.5466 0.598198C12.7883 0.359018 11.9849 0.434018 11.2833 0.810698L2.71909 5.42238C2.51659 5.5307 2.44077 5.78406 2.54991 5.98656C2.65909 6.18906 2.91241 6.26488 3.11409 6.15574L11.6799 1.5457C12.1799 1.2757 12.7557 1.22152 13.2957 1.3932C13.8374 1.56402 14.2757 1.93902 14.5299 2.44738L16.2941 5.9757C16.3674 6.12152 16.5141 6.2057 16.6666 6.2057C16.7291 6.2057 16.7924 6.19152 16.8524 6.16153C17.0582 6.0582 17.1416 5.8082 17.0391 5.60238Z" fill="#9ACD32"/>
<path d="M15.3675 2.25908C15.2575 2.05576 15.0042 1.98076 14.8025 2.08908L8.61167 5.42239C8.40917 5.53157 8.33335 5.78407 8.44249 5.98657C8.51749 6.12657 8.66081 6.20575 8.80917 6.20575C8.87585 6.20575 8.94417 6.18993 9.00749 6.15657L15.1983 2.82325C15.4008 2.71407 15.4767 2.46158 15.3675 2.25908Z" fill="#9ACD32"/>
<path d="M7.5 2.87256H4.58332C2.05668 2.87256 0 4.92838 0 7.45588V8.2892C0 8.5192 0.18668 8.70588 0.41668 8.70588C0.64668 8.70588 0.833359 8.5192 0.833359 8.2892V7.45588C0.833359 5.38838 2.51586 3.70588 4.58336 3.70588H7.5C7.73 3.70588 7.91668 3.5192 7.91668 3.2892C7.91668 3.0592 7.73 2.87256 7.5 2.87256Z" fill="#9ACD32"/>
<path d="M15.4167 2.87256C15.1867 2.87256 15 3.05924 15 3.28924C15 3.51924 15.1867 3.70592 15.4167 3.70592C17.4842 3.70592 19.1667 5.38842 19.1667 7.45592V8.28924C19.1667 8.51924 19.3534 8.70592 19.5834 8.70592C19.8134 8.70592 20 8.51924 20 8.28924V7.45592C20 4.92838 17.9433 2.87256 15.4167 2.87256Z" fill="#9ACD32"/>
</g>
<defs>
<clipPath id="clip0">
<rect width="20" height="20" fill="white"/>
</clipPath>
</defs>
</svg>
