<svg width="20" height="20" viewBox="0 0 20 20" fill="none" xmlns="http://www.w3.org/2000/svg">
<g clip-path="url(#clip0)">
<path d="M19.5 8.65999C19.4994 8.65953 19.4989 8.65892 19.4984 8.65846L11.34 0.500335C10.9923 0.152434 10.5299 -0.0390644 10.0381 -0.0390644C9.54633 -0.0390644 9.08399 0.152434 8.73609 0.500335L0.581931 8.65434C0.579184 8.65709 0.576285 8.65999 0.573691 8.66273C-0.140422 9.38097 -0.139201 10.5463 0.5772 11.2627C0.904502 11.5901 1.33663 11.7797 1.79882 11.7996C1.81774 11.8015 1.83666 11.8024 1.85574 11.8024H2.18075V17.8061C2.18075 18.9943 3.14755 19.961 4.33575 19.961H7.52759C7.85123 19.961 8.11353 19.6985 8.11353 19.375V14.668C8.11353 14.1258 8.55466 13.6849 9.09681 13.6849H10.9794C11.5216 13.6849 11.9626 14.1258 11.9626 14.668V19.375C11.9626 19.6985 12.2249 19.961 12.5485 19.961H15.7403C16.9287 19.961 17.8953 18.9943 17.8953 17.8061V11.8024H18.1969C18.6885 11.8024 19.1508 11.6109 19.4989 11.2628C20.2161 10.5454 20.2164 9.37792 19.5 8.65999ZM18.6702 10.4343C18.5437 10.5608 18.3755 10.6305 18.1969 10.6305H17.3094C16.9858 10.6305 16.7235 10.8928 16.7235 11.2165V17.8061C16.7235 18.3481 16.2825 18.7891 15.7403 18.7891H13.1344V14.668C13.1344 13.4798 12.1678 12.513 10.9794 12.513H9.09681C7.90845 12.513 6.94165 13.4798 6.94165 14.668V18.7891H4.33575C3.79376 18.7891 3.35263 18.3481 3.35263 17.8061V11.2165C3.35263 10.8928 3.09033 10.6305 2.76669 10.6305H1.89449C1.88534 10.6299 1.87634 10.6294 1.86703 10.6293C1.69247 10.6262 1.52874 10.557 1.40606 10.4341C1.14513 10.1732 1.14513 9.74855 1.40606 9.48747C1.40621 9.48747 1.40621 9.48732 1.40636 9.48717L1.40682 9.48671L9.56495 1.32889C9.69129 1.20239 9.85929 1.13281 10.0381 1.13281C10.2168 1.13281 10.3848 1.20239 10.5113 1.32889L18.6676 9.48503C18.6688 9.48625 18.6702 9.48747 18.6714 9.48869C18.931 9.75008 18.9305 10.1738 18.6702 10.4343Z" fill="#2A2B2A" fill-opacity="0.4"/>
</g>
<defs>
<clipPath id="clip0">
<rect width="20" height="20" fill="white"/>
</clipPath>
</defs>
</svg>
