<svg width="20" height="20" viewBox="0 0 20 20" fill="none" xmlns="http://www.w3.org/2000/svg">
<path d="M0.576933 5.52296C0.569665 5.56247 0.565568 5.60251 0.564247 5.64255V6.46506C0.565304 6.80403 0.77582 7.10705 1.09338 7.22612V8.43636C1.09483 8.84153 1.41345 9.17455 1.8181 9.19372V16.1854C1.41345 16.2047 1.09483 16.5377 1.09338 16.9428V18.1495C0.77516 18.2717 0.564775 18.577 0.564247 18.9177V19.7222C0.564247 19.8722 0.68609 19.9939 0.836081 19.9939H19.1644C19.3144 19.9939 19.4361 19.8722 19.4361 19.7222V18.9177C19.4356 18.5768 19.2252 18.2716 18.9071 18.1495V16.9357C18.9056 16.5305 18.5869 16.1975 18.1824 16.1783V9.19372C18.5869 9.17455 18.9056 8.84153 18.9071 8.43636V7.22612C19.2245 7.10705 19.435 6.80403 19.4361 6.46506V5.64797C19.4349 5.60793 19.4307 5.56789 19.4234 5.52837C19.56 5.5889 19.7198 5.52732 19.7803 5.39067C19.8409 5.25416 19.7793 5.09439 19.6428 5.03373L10.1252 0.0314189C10.0458 -0.010473 9.95094 -0.010473 9.87152 0.0314189L0.354126 5.02831C0.221314 5.09849 0.170436 5.26275 0.240344 5.39556C0.304305 5.51688 0.448614 5.57159 0.576933 5.52296ZM1.63692 7.6971V7.27858H4.77128V7.69354L1.63692 7.6971ZM8.61595 9.19557V16.1854C8.2113 16.2047 7.89268 16.5377 7.89123 16.9428V18.0987H5.31111V16.9428C5.30966 16.5377 4.99104 16.2047 4.5864 16.1854V9.19372C4.99104 9.17455 5.30966 8.84153 5.31111 8.43636V7.27858H7.88753V8.43464C7.88819 8.84048 8.20707 9.17429 8.61238 9.19372L8.61595 9.19557ZM8.43477 7.6971V7.27858H11.5693V7.69354L8.43477 7.6971ZM15.4139 9.19557V16.1854C15.0093 16.2047 14.6905 16.5377 14.6891 16.9428V18.0987H12.1091V16.9428C12.1076 16.5377 11.7889 16.2047 11.3844 16.1854V9.19372C11.7889 9.17455 12.1076 8.84153 12.1091 8.43636V7.27858H14.6855V8.43464C14.686 8.84048 15.0049 9.17429 15.4102 9.19372L15.4139 9.19557ZM15.2328 7.6971V7.27858H18.3671V7.69354L15.2328 7.6971ZM18.3671 17.6839V18.0987H15.2291V17.6839H18.3671ZM11.5693 17.6839V18.0987H8.4312V17.6839H11.5693ZM8.88408 8.6556H8.64859C8.52846 8.6556 8.4312 8.55833 8.4312 8.43821V8.24064H11.5656V8.43821C11.5656 8.55833 11.4683 8.6556 11.3482 8.6556H8.88408ZM10.8427 9.19913V16.1819H9.15592V9.19913H10.8427ZM8.88408 16.7254H11.3482C11.4683 16.7254 11.5656 16.8227 11.5656 16.9428V17.1404H8.4312V16.9428C8.4312 16.8227 8.52846 16.7254 8.64859 16.7254H8.88408ZM4.76771 17.6839V18.0987H1.63322V17.6839H4.76771ZM1.63322 8.44363V8.24064H4.76771V8.43821C4.76771 8.55833 4.67044 8.6556 4.55019 8.6556H1.84519C1.72652 8.65269 1.63216 8.55503 1.63322 8.43636V8.44363ZM4.04299 9.20455V16.1819H2.35793V9.19913L4.04299 9.20455ZM1.63322 16.9483C1.63322 16.8281 1.73048 16.7308 1.85061 16.7308H4.55019C4.67044 16.7308 4.76771 16.8281 4.76771 16.9483V17.1458H1.63322V16.9483ZM18.8925 18.9286V19.4612H1.10422V18.9286C1.10422 18.7735 1.22989 18.6477 1.38504 18.6477H18.6117C18.7646 18.6477 18.8896 18.7702 18.8925 18.9231V18.9286ZM18.3635 16.9483V17.1458H15.2291V16.9483C15.2291 16.8281 15.3263 16.7308 15.4464 16.7308H18.1516C18.2675 16.7337 18.3606 16.8269 18.3635 16.9428V16.9483ZM15.9538 16.1873V9.19913H17.6405V16.1819L15.9538 16.1873ZM18.3635 8.44363C18.3635 8.56375 18.2663 8.66101 18.1462 8.66101H15.4483C15.3282 8.66101 15.2309 8.56375 15.2309 8.44363V8.24064H18.3653L18.3635 8.44363ZM9.99838 0.574956L18.0917 4.82903H1.90505L9.99838 0.574956ZM1.10422 5.64797C1.10422 5.49798 1.22593 5.37627 1.37592 5.37627H18.6208C18.7708 5.37627 18.8925 5.49798 18.8925 5.64797V6.47061C18.8925 6.6206 18.7708 6.74231 18.6208 6.74231H1.37592C1.22593 6.74231 1.10422 6.6206 1.10422 6.47061V5.64797Z" fill="#9ACD32"/>
</svg>
